<svg width="16" xmlns="http://www.w3.org/2000/svg" height="16" id="screenshot-d4e6a4f9-8e25-5c08-b040-f6b97055323d" viewBox="0 0 16 16" xmlns:xlink="http://www.w3.org/1999/xlink" fill="none" version="1.1"><g id="shape-d4e6a4f9-8e25-5c08-b040-f6b97055323d"><defs><clipPath id="frame-clip-d4e6a4f9-8e25-5c08-b040-f6b97055323d-render-1" class="frame-clip frame-clip-def"><rect rx="0" ry="0" x="0" y="0" width="16" height="16" transform="matrix(1.000000, 0.000000, 0.000000, 1.000000, 0.000000, 0.000000)"/></clipPath></defs><g class="frame-container-wrapper" opacity="1"><g class="frame-container-blur"><g class="frame-container-shadows"><g clip-path="url(#frame-clip-d4e6a4f9-8e25-5c08-b040-f6b97055323d-render-1)" fill="none"><g class="fills" id="fills-d4e6a4f9-8e25-5c08-b040-f6b97055323d"><rect width="16" height="16" class="frame-background" x="0" transform="matrix(1.000000, 0.000000, 0.000000, 1.000000, 0.000000, 0.000000)" style="fill: rgb(255, 255, 255); fill-opacity: 0;" ry="0" rx="0" y="0"/></g><g class="frame-children"><g id="shape-ab9668bc-e6dc-5c19-b0ad-adba1961d8d0" style="opacity: 1;"><g class="fills" id="fills-ab9668bc-e6dc-5c19-b0ad-adba1961d8d0"><path d="M13.5,3.000009775161743L11,3.000009775161743L11,2.500009775161743C11,2.102182626724243,10.8419189453125,1.7207129001617432,10.5606689453125,1.4393408298492432C10.279296875,1.1580908298492432,9.8978271484375,1.0000097751617432,9.5,1.0000097751617432L6.5,1.0000097751617432C6.1021728515625,1.0000097751617432,5.720703125,1.1580908298492432,5.4393310546875,1.4393408298492432C5.1580810546875,1.7207129001617432,5,2.102182626724243,5,2.500009775161743L5,3.000009775161743L2.5,3.000009775161743C2.367431640625,3.000009775161743,2.240234375,3.052744150161743,2.146484375,3.146494150161743C2.052734375,3.240244150161743,2,3.367441415786743,2,3.500009775161743C2,3.632578134536743,2.052734375,3.759775400161743,2.146484375,3.853525400161743C2.240234375,3.947275400161743,2.367431640625,4.000009536743164,2.5,4.000009536743164L3,4.000009536743164L3,13.000009536743164C3,13.265268325805664,3.1053466796875,13.519540786743164,3.2928466796875,13.707162857055664C3.48046875,13.894662857055664,3.7347412109375,14.000009536743164,4,14.000009536743164L12,14.000009536743164C12.2652587890625,14.000009536743164,12.51953125,13.894662857055664,12.7071533203125,13.707162857055664C12.8946533203125,13.519540786743164,13,13.265268325805664,13,13.000009536743164L13,4.000009536743164L13.5,4.000009536743164C13.632568359375,4.000009536743164,13.759765625,3.947275400161743,13.853515625,3.853525400161743C13.947265625,3.759775400161743,14,3.632578134536743,14,3.500009775161743C14,3.367441415786743,13.947265625,3.240244150161743,13.853515625,3.146494150161743C13.759765625,3.052744150161743,13.632568359375,3.000009775161743,13.5,3.000009775161743ZM6,2.500009775161743C6,2.367441415786743,6.052734375,2.240244150161743,6.146484375,2.146494150161743C6.240234375,2.052744150161743,6.367431640625,2.000009775161743,6.5,2.000009775161743L9.5,2.000009775161743C9.632568359375,2.000009775161743,9.759765625,2.052744150161743,9.853515625,2.146494150161743C9.947265625,2.240244150161743,10,2.367441415786743,10,2.500009775161743L10,3.000009775161743L6,3.000009775161743L6,2.500009775161743ZM12,13.000009536743164L4,13.000009536743164L4,4.000009536743164L12,4.000009536743164L12,13.000009536743164ZM7,6.500009536743164L7,10.500009536743164C7,10.632577896118164,6.947265625,10.759775161743164,6.853515625,10.853525161743164C6.759765625,10.947275161743164,6.632568359375,11.000009536743164,6.5,11.000009536743164C6.367431640625,11.000009536743164,6.240234375,10.947275161743164,6.146484375,10.853525161743164C6.052734375,10.759775161743164,6,10.632577896118164,6,10.500009536743164L6,6.500009536743164C6,6.367441177368164,6.052734375,6.240243911743164,6.146484375,6.146493911743164C6.240234375,6.052743911743164,6.367431640625,6.000009536743164,6.5,6.000009536743164C6.632568359375,6.000009536743164,6.759765625,6.052743911743164,6.853515625,6.146493911743164C6.947265625,6.240243911743164,7,6.367441177368164,7,6.500009536743164ZM10,6.500009536743164L10,10.500009536743164C10,10.632577896118164,9.947265625,10.759775161743164,9.853515625,10.853525161743164C9.759765625,10.947275161743164,9.632568359375,11.000009536743164,9.5,11.000009536743164C9.367431640625,11.000009536743164,9.240234375,10.947275161743164,9.146484375,10.853525161743164C9.052734375,10.759775161743164,9,10.632577896118164,9,10.500009536743164L9,6.500009536743164C9,6.367441177368164,9.052734375,6.240243911743164,9.146484375,6.146493911743164C9.240234375,6.052743911743164,9.367431640625,6.000009536743164,9.5,6.000009536743164C9.632568359375,6.000009536743164,9.759765625,6.052743911743164,9.853515625,6.146493911743164C9.947265625,6.240243911743164,10,6.367441177368164,10,6.500009536743164Z" fill-rule="nonzero" style="fill: rgb(100, 116, 139); fill-opacity: 1;"/></g></g></g></g></g></g></g></g></svg>